<svg xmlns:mydata="http://www.w3.org/2000/svg" mydata:contrastcolor="25142d" mydata:template="Contrast" mydata:presentation="2.5" mydata:layouttype="undefined" mydata:specialfontid="undefined" mydata:id1="087" mydata:id2="185" mydata:companyname="larapack generator" mydata:companytagline="" version="1.1" xmlns="http://www.w3.org/2000/svg" xmlns:xlink="http://www.w3.org/1999/xlink" viewBox="0 45 550 380"><defs><linearGradient x1="86.69228" y1="235" x2="463.30772" y2="235" gradientUnits="userSpaceOnUse" id="color-16621551280"><stop offset="0" stop-color="#7b4397"></stop><stop offset="1" stop-color="#dc2430"></stop></linearGradient></defs><g fill="url(#color-16621551280)" fill-rule="evenodd" stroke="none" stroke-width="1" stroke-linecap="butt" stroke-linejoin="miter" stroke-miterlimit="10" stroke-dasharray="" stroke-dashoffset="0" font-family="none" font-weight="none" font-size="none" text-anchor="none" style="mix-blend-mode: normal"><g data-paper-data="{&quot;isGlobalGroup&quot;:true,&quot;bounds&quot;:{&quot;x&quot;:86.69228033174677,&quot;y&quot;:106,&quot;width&quot;:376.6154393365065,&quot;height&quot;:258}}"><g data-paper-data="{&quot;isIcon&quot;:&quot;true&quot;,&quot;iconType&quot;:&quot;icon&quot;,&quot;rawIconId&quot;:&quot;68987&quot;,&quot;selectedEffects&quot;:{&quot;container&quot;:&quot;circle_simple_filledplus&quot;,&quot;transformation&quot;:&quot;&quot;,&quot;pattern&quot;:&quot;&quot;},&quot;isDetailed&quot;:false,&quot;fillRule&quot;:&quot;nonzero&quot;,&quot;blockLetter&quot;:&quot;O&quot;,&quot;blockLetterId&quot;:0,&quot;relativeBoundsIconToContainer&quot;:{&quot;top&quot;:0.0005120612103272563,&quot;left&quot;:0.009112617953768188},&quot;widthRatioIconToContainer&quot;:0.6344224280649805,&quot;heightRatioIconToContainer&quot;:0.7938843547500182,&quot;bounds&quot;:{&quot;x&quot;:157.34899991449822,&quot;y&quot;:106,&quot;width&quot;:235.3008236668852,&quot;height&quot;:179.41246615555622},&quot;iconStyle&quot;:&quot;standalone&quot;,&quot;suitableAsStandaloneIcon&quot;:false}"><path d="M392.59982,227.14345l0.02794,-1.17533l0.01618,-1.17459l0.00588,-1.13003v-0.02647l-0.00588,-1.17533l-0.01765,-1.17533l-0.02794,-1.17533l-0.03971,-1.17459l-0.05147,-1.17533l-0.06177,-1.17386l-0.075,-1.174l-0.0853,-1.17312l-0.09706,-1.17253l-0.10883,-1.17121l-0.12059,-1.17047l-0.13236,-1.16915l-0.14559,-1.16797l-0.15442,-1.16621l-0.16912,-1.16489l-0.17942,-1.16327l-0.19118,-1.16136l-0.20295,-1.1593l-0.21618,-1.15724l-0.22648,-1.15503l-0.23824,-1.15268l-0.25001,-1.15003l-0.26324,-1.14753l-0.27354,-1.14489l-0.2853,-1.1418l-0.29707,-1.13886l-0.30883,-1.13577l-0.3206,-1.13253l-0.33236,-1.12915l-0.34266,-1.12562l-0.35442,-1.12209l-0.36619,-1.11841l-0.37648,-1.11444l-0.38825,-1.11062l-0.40001,-1.1065l-0.41031,-1.10253l-0.4206,-1.09827l-0.43089,-1.09385l-0.44266,-1.0893l-0.4456,-1.06753l-0.46325,-1.08062l-0.47501,-1.07606l-0.48384,-1.07165l-0.49413,-1.0668l-0.50737,-1.06209l-0.51472,-1.05709l-0.52649,-1.05194l-0.53825,-1.04679l-0.54707,-1.04135l-0.55884,-1.03591l-0.56766,-1.03018l-0.57943,-1.02459l-0.58972,-1.01871l-0.60002,-1.01268l-0.61031,-1.0065l-0.61914,-1.00032l-0.6309,-0.994l-0.63972,-0.98753l-0.65002,-0.98091l-0.66031,-0.97429l-0.67061,-0.96753l-0.6809,-0.96062l-0.68973,-0.95356l-0.69855,-0.9465l-0.70884,-0.93944l-0.71767,-0.93209l-0.72796,-0.92473l-0.73679,-0.91738l-0.74561,-0.90973l-0.7559,-0.90238l-0.76326,-0.89458l-0.77208,-0.88679l-0.78238,-0.87914l-0.78826,-0.87135l-0.79855,-0.86341l-0.80738,-0.85561l-0.81473,-0.84752l-0.81767,-0.83546l-0.47943,-0.48163l-0.83532,-0.82708l-0.84267,-0.81914l-0.85149,-0.81105l-0.85885,-0.80267l-0.86767,-0.79443l-0.87502,-0.78605l-0.88238,-0.77738l-0.88973,-0.7687l-0.89856,-0.75987l-0.90591,-0.75076l-0.91326,-0.74193l-0.92061,-0.73267l-0.92944,-0.7234l-0.93385,-0.71399l-0.94414,-0.70473l-0.94856,-0.69487l-0.95738,-0.68546l-0.96326,-0.67561l-0.97062,-0.66575l-0.97797,-0.6559l-0.98385,-0.6459l-0.98973,-0.6359l-0.99709,-0.62575l-1.00297,-0.61546l-1.00885,-0.60531l-1.01621,-0.59502l-1.02062,-0.58472l-1.02797,-0.57425l-1.03238,-0.56388l-1.03826,-0.55347l-1.04415,-0.5429l-1.04856,-0.5324l-1.05444,-0.52191l-1.05885,-0.51134l-1.06474,-0.50085l-1.06915,-0.49022l-1.07209,-0.47972l-1.07356,-0.46693l-0.62502,-0.26655l-1.08533,-0.45267l-1.08974,-0.44213l-1.09562,-0.43141l-1.09709,-0.42063l-1.10297,-0.40973l-1.10738,-0.39881l-1.11033,-0.3877l-1.11474,-0.37664l-1.11915,-0.36539l-1.12209,-0.35413l-1.12503,-0.34279l-1.12944,-0.33133l-1.13386,-0.31985l-1.13533,-0.30832l-1.1393,-0.29679l-1.14194,-0.2851l-1.14474,-0.27343l-1.14753,-0.26168l-1.15018,-0.25001l-1.15312,-0.23826l-1.15518,-0.22636l-1.15724,-0.21464l-1.1593,-0.20281l-1.16136,-0.19099l-1.16283,-0.17918l-1.16489,-0.16737l-1.16636,-0.15555l-1.16827,-0.1438l-1.16915,-0.13199l-1.17047,-0.12031l-1.17106,-0.1085l-1.17253,-0.09689l-1.17253,-0.08528l-1.17386,-0.07367l-1.17459,-0.06207l-1.17474,-0.05067l-1.17459,-0.0392l-1.17518,-0.0278l-1.17489,-0.01654l-1.15592,-0.00528l-1.17533,0.00576l-1.17533,0.01695l-1.17533,0.02822l-1.17503,0.03968l-1.17474,0.05108l-1.1743,0.06255l-1.17386,0.07416l-1.17312,0.0857l-1.17239,0.09738l-1.1715,0.10898l-1.17018,0.1208l-1.1693,0.13247l-1.16783,0.14422l-1.1665,0.15604l-1.16474,0.16785l-1.16327,0.17967l-1.16136,0.19149l-1.1593,0.2033l-1.15724,0.21511l-1.15503,0.22693l-1.15268,0.23868l-1.15003,0.25042l-1.14753,0.26224l-1.14474,0.2739l-1.14194,0.28552l-1.13886,0.2972l-1.13577,0.30882l-1.13253,0.32027l-1.12915,0.3318l-1.12562,0.34322l-1.12209,0.35454l-1.11841,0.3658l-1.11444,0.37705l-1.11062,0.3881l-1.10665,0.39917l-1.10238,0.41013l-1.09812,0.42107l-1.094,0.43175l-1.0893,0.44239l-1.06753,0.44566l-1.08062,0.46337l-1.07621,0.47395l-1.0715,0.4845l-1.06694,0.495l-1.06194,0.50565l-1.05709,0.51613l-1.05194,0.52669l-1.04679,0.53719l-1.04135,0.54769l-1.03591,0.55818l-1.03032,0.5686l-1.02444,0.57899l-1.01871,0.58943l-1.01268,0.59972l-1.00665,0.61002l-1.00032,0.62016l-0.99385,0.63017l-0.98753,0.64046l-0.98106,0.65046l-0.97415,0.66031l-0.96753,0.67017l-0.96062,0.68017l-0.95356,0.68973l-0.9465,0.69928l-0.93944,0.70884l-0.93209,0.71811l-0.92473,0.72767l-0.91738,0.73679l-0.90973,0.74576l-0.90238,0.75502l-0.89458,0.7637l-0.88694,0.77252l-0.879,0.7812l-0.87135,0.78973l-0.86341,0.79811l-0.85561,0.80649l-0.84752,0.81458l-0.83546,0.81855l-0.48163,0.47913l-0.82708,0.83517l-0.81914,0.84326l-0.81105,0.8512l-0.80267,0.85914l-0.79443,0.86708l-0.78605,0.87502l-0.77738,0.88267l-0.7687,0.89047l-0.75987,0.89811l-0.7509,0.90576l-0.74179,0.91326l-0.73267,0.92076l-0.7234,0.92811l-0.71414,0.93547l-0.70458,0.94253l-0.69502,0.94988l-0.68531,0.95679l-0.67561,0.9637l-0.6659,0.97062l-0.6559,0.97723l-0.6459,0.984l-0.63575,0.99047l-0.62575,0.99679l-0.61561,1.00312l-0.60531,1.00929l-0.59502,1.01532l-0.58472,1.02121l-0.57425,1.02724l-0.5639,1.03268l-0.55346,1.03826l-0.5429,1.04371l-0.53247,1.049l-0.52191,1.05429l-0.51134,1.05929l-0.50078,1.064l-0.49029,1.069l-0.47972,1.07356l-0.46685,1.07268l-0.26642,0.62531l-0.45267,1.08518l-0.44212,1.08974l-0.43135,1.0943l-0.42063,1.09841l-0.40973,1.10268l-0.39881,1.10694l-0.38778,1.11077l-0.37657,1.11474l-0.36539,1.11871l-0.35413,1.12224l-0.34279,1.12577l-0.33133,1.12944l-0.31985,1.13268l-0.30832,1.13591l-0.29679,1.139l-0.2851,1.14209l-0.27343,1.14489l-0.26176,1.14768l-0.24993,1.15018l-0.23826,1.15268l-0.22643,1.15503l-0.21464,1.15739l-0.20281,1.15944l-0.19099,1.16136l-0.17918,1.16312l-0.16737,1.16489l-0.15555,1.16636l-0.14373,1.16783l-0.13206,1.16915l-0.12024,1.17062l-0.10857,1.17106l-0.09689,1.17253l-0.08528,1.17253l-0.0736,1.17386l-0.06213,1.17459l-0.05067,1.17474l-0.0392,1.17459l-0.0278,1.17533l-0.01654,1.17459l-0.00528,1.1565l0.00576,1.17533l0.01695,1.17533l0.02822,1.17533l0.03968,1.17459l0.05108,1.17533l0.06255,1.17386l0.07416,1.174l0.0857,1.17312l0.09738,1.17253l0.10905,1.17121l0.12073,1.17047l0.13247,1.169l0.14429,1.16842l0.15604,1.16621l0.16785,1.16489l0.17967,1.16283l0.19148,1.16136l0.20324,1.1593l0.21511,1.15724l0.22693,1.15518l0.23868,1.15239l0.25048,1.15033l0.26218,1.14753l0.2739,1.14474l0.2856,1.14194l0.2972,1.13871l0.3088,1.1368l0.32029,1.13091l0.3318,1.12944l0.34322,1.1265l0.35454,1.12209l0.36579,1.11768l0.377,1.11474l0.38817,1.11033l0.39916,1.10738l0.41014,1.1015l0.421,1.09856l0.43175,1.09415l0.44239,1.08974l0.44566,1.06768l0.46337,1.07944l0.47395,1.0765l0.4845,1.07209l0.495,1.06621l0.50565,1.06179l0.51613,1.05738l0.52669,1.05297l0.53719,1.04562l0.54777,1.04121l0.55812,1.03679l0.56859,1.02944l0.57913,1.02503l0.58928,1.01915l0.59972,1.01179l0.61002,1.00738l0.16618,0.26765h6.54827l-0.22265,-0.3353l-0.60958,-0.9412l-0.60016,-0.94709l-0.59031,-0.95297l-0.5806,-0.95738l-0.5709,-0.96473l-0.56119,-0.97062l-0.55119,-0.9765l-0.54149,-0.98091l-0.53163,-0.98826l-0.52163,-0.9912l-0.51178,-0.99856l-0.50163,-1.00297l-0.49193,-1.00738l-0.48178,-1.01326l-0.47193,-1.01768l-0.46192,-1.02209l-0.45192,-1.0265l-0.442,-1.03238l-0.42488,-1.01768l-0.42203,-1.03974l-0.4116,-1.04268l-0.40125,-1.04856l-0.39082,-1.0515l-0.38033,-1.05444l-0.36969,-1.05885l-0.35898,-1.06179l-0.34836,-1.06474l-0.33744,-1.07062l-0.32667,-1.07209l-0.31576,-1.07503l-0.30477,-1.07944l-0.2938,-1.08106l-0.28267,-1.0843l-0.27168,-1.08768l-0.26051,-1.08988l-0.24937,-1.09253l-0.2382,-1.09533l-0.22693,-1.09753l-0.21581,-1.09959l-0.20454,-1.10165l-0.1933,-1.1043l-0.18202,-1.10591l-0.17084,-1.10783l-0.15958,-1.1093l-0.1484,-1.11136l-0.13712,-1.11209l-0.12602,-1.11415l-0.11475,-1.11547l-0.10371,-1.11636l-0.0925,-1.11753l-0.08146,-1.119l-0.07047,-1.119l-0.05943,-1.12047l-0.04844,-1.12106l-0.0376,-1.12106l-0.02675,-1.1218l-0.01593,-1.12253l-0.00521,-1.12253l0.00528,-1.10444l0.01606,-1.12238l0.02682,-1.1218l0.03768,-1.1218l0.04852,-1.12121l0.05956,-1.12033l0.07047,-1.119l0.08161,-1.119l0.09265,-1.11768l0.10377,-1.11694l0.11489,-1.11503l0.12608,-1.11415l0.1372,-1.11268l0.14853,-1.11121l0.15965,-1.10959l0.17099,-1.10768l0.18217,-1.10606l0.19336,-1.104l0.20468,-1.1018l0.21589,-1.09988l0.22707,-1.09738l0.23824,-1.09518l0.24946,-1.09253l0.26064,-1.09003l0.27176,-1.08724l0.28282,-1.08444l0.29386,-1.0815l0.30485,-1.07856l0.31582,-1.07547l0.32674,-1.07224l0.33751,-1.069l0.34842,-1.06547l0.35905,-1.06209l0.36976,-1.05856l0.38033,-1.05488l0.39089,-1.05106l0.40132,-1.04724l0.4116,-1.04341l0.42195,-1.03944l0.4321,-1.03532l0.25001,-0.58634l0.45026,-1.03415l0.45795,-1.02415l0.46795,-1.01959l0.47781,-1.01488l0.48796,-1.00988l0.49766,-1.00503l0.50781,-0.99973l0.51766,-0.99473l0.52766,-0.98929l0.53752,-0.98385l0.54737,-0.97841l0.55722,-0.97267l0.56707,-0.96694l0.57663,-0.9612l0.58649,-0.95503l0.59619,-0.94929l0.60575,-0.94297l0.61531,-0.93679l0.62472,-0.93047l0.63443,-0.92414l0.64355,-0.91767l0.65296,-0.91091l0.66208,-0.90444l0.67134,-0.89767l0.68046,-0.89091l0.68928,-0.884l0.6984,-0.87708l0.70708,-0.87017l0.7159,-0.86297l0.72443,-0.85591l0.73296,-0.84885l0.74149,-0.84135l0.74987,-0.83429l0.75796,-0.82694l0.7662,-0.81973l0.77414,-0.81208l0.78208,-0.80488l0.78988,-0.79723l0.45222,-0.44972l0.80591,-0.78929l0.80929,-0.77752l0.81679,-0.76943l0.82399,-0.76149l0.83149,-0.75311l0.8387,-0.74502l0.84591,-0.73649l0.85311,-0.72796l0.86017,-0.71943l0.86738,-0.71061l0.87429,-0.70193l0.88135,-0.69296l0.88826,-0.68414l0.89488,-0.67502l0.90179,-0.6659l0.90841,-0.65664l0.91503,-0.64737l0.9215,-0.63811l0.92797,-0.62855l0.93429,-0.61914l0.94047,-0.60958l0.94664,-0.60002l0.95282,-0.59046l0.9587,-0.5806l0.96459,-0.5709l0.97032,-0.56105l0.97606,-0.55134l0.98165,-0.54149l0.98709,-0.53163l0.99253,-0.52163l0.99768,-0.51163l1.00268,-0.50178l1.00782,-0.49193l1.01282,-0.48178l1.01753,-0.47193l1.02224,-0.46178l1.02694,-0.45207l1.03135,-0.44197l1.01856,-0.42494l1.03974,-0.42203l1.04356,-0.4116l1.04753,-0.40125l1.05121,-0.39082l1.05503,-0.38026l1.05856,-0.36969l1.06224,-0.35905l1.06562,-0.34829l1.069,-0.33751l1.07238,-0.32667l1.07547,-0.31576l1.07871,-0.30477l1.08165,-0.29373l1.08444,-0.28274l1.08738,-0.27161l1.09003,-0.26058l1.09253,-0.2493l1.09518,-0.2382l1.09738,-0.22699l1.09974,-0.21574l1.10194,-0.20455l1.104,-0.19328l1.10591,-0.18209l1.10768,-0.17077l1.10959,-0.15965l1.11106,-0.14833l1.11268,-0.13721l1.114,-0.12594l1.11533,-0.11481l1.1165,-0.10362l1.11768,-0.09252l1.11856,-0.08146l1.11944,-0.07047l1.12018,-0.05943l1.12077,-0.04844l1.1215,-0.0376l1.1218,-0.02675l1.12238,-0.01591l1.12253,-0.00522l1.10371,0.00528l1.12268,0.01606l1.12209,0.02677l1.12165,0.03766l1.12106,0.04857l1.12047,0.05958l1.119,0.07047l1.119,0.08161l1.11768,0.09258l1.1168,0.10377l1.11488,0.11489l1.11415,0.12608l1.11283,0.13727l1.11136,0.14846l1.1093,0.15973l1.10783,0.17092l1.10577,0.18217l1.10444,0.19343l1.10165,0.20461l1.10033,0.21587l1.09738,0.22707l1.09474,0.23826l1.09253,0.24952l1.08988,0.26058l1.08768,0.27176l1.0843,0.2828l1.08194,0.29388l1.07797,0.30485l1.07503,0.31582l1.07356,0.32673l1.06768,0.3376l1.06621,0.34835l1.06179,0.35913l1.05885,0.36969l1.05444,0.38041l1.0515,0.39082l1.04709,0.40132l1.04415,0.41166l1.03826,0.42195l1.03532,0.43212l0.58678,0.25021l1.03385,0.45029l1.02503,0.45781l1.01915,0.46795l1.01473,0.47795l1.01032,0.48781l1.00444,0.49781l1.00003,0.50781l0.99415,0.51766l0.98973,0.52766l0.98385,0.53737l0.97944,0.54737l0.97209,0.55722l0.96767,0.56707l0.96032,0.57678l0.95591,0.58649l0.94856,0.59605l0.94267,0.60575l0.93679,0.61531l0.93091,0.62472l0.92356,0.63428l0.91767,0.64369l0.91179,0.65296l0.90444,0.66208l0.89708,0.67134l0.8912,0.68031l0.88385,0.68943l0.87797,0.69826l0.86914,0.70723l0.86326,0.71576l0.85591,0.72458l0.84855,0.73296l0.8412,0.74149l0.83532,0.74973l0.82649,0.75796l0.81914,0.7662l0.81326,0.77414l0.80296,0.78208l0.79855,0.79002l0.45001,0.45207l0.78826,0.80591l0.77796,0.80943l0.76914,0.81664l0.76179,0.82414l0.75296,0.83135l0.74561,0.8387l0.73679,0.84591l0.72796,0.85311l0.71914,0.86032l0.71031,0.86738l0.70149,0.87429l0.69414,0.88135l0.68384,0.88811l0.67502,0.89503l0.66472,0.90164l0.65737,0.90841l0.64708,0.91503l0.63825,0.92164l0.62943,0.92782l0.61766,0.93429l0.61031,0.94062l0.60002,0.94664l0.58972,0.95282l0.5809,0.95856l0.5706,0.96473l0.56178,0.97032l0.55149,0.97606l0.54119,0.98165l0.5309,0.98709l0.52207,0.99238l0.51178,0.99768l0.50148,1.00282l0.49119,1.00782l0.48237,1.01282l0.47207,1.01753l0.46178,1.02224l0.45148,1.02694l0.44266,1.03135l0.42501,1.01841l0.42207,1.03988l0.41178,1.04356l0.40148,1.04738l0.39119,1.05121l0.37942,1.05503l0.3706,1.05856l0.35736,1.06224l0.34854,1.06562l0.33824,1.06915l0.32648,1.07224l0.31619,1.07547l0.30442,1.07871l0.29413,1.08165l0.28236,1.08444l0.27207,1.08738l0.2603,1.09003l0.25001,1.09253l0.23677,1.09518l0.22795,1.09753l0.21471,1.09974l0.20589,1.10194l0.19265,1.10385l0.18236,1.10591l0.17059,1.10783l0.15883,1.10944l0.14853,1.11121l0.13824,1.11253l0.125,1.11415l0.11471,1.11533l0.10441,1.11621l0.09118,1.11768l0.08236,1.119l0.07059,1.119l0.05883,1.12033l0.04853,1.12121l0.03824,1.12106l0.02647,1.1218l0.01618,1.12253l0.00441,1.09621v0.02632l-0.00441,1.10385l-0.01618,1.12312l-0.02647,1.1218l-0.03824,1.1218l-0.04853,1.12106l-0.05883,1.11974l-0.07059,1.11974l-0.08236,1.119l-0.09265,1.11753l-0.10294,1.11636l-0.11471,1.11547l-0.12647,1.11415l-0.13677,1.11283l-0.14853,1.11136l-0.1603,1.1093l-0.17059,1.10783l-0.18236,1.10577l-0.19412,1.10444l-0.20442,1.10165l-0.21618,1.09959l-0.22648,1.09738l-0.23824,1.09547l-0.25001,1.09253l-0.2603,1.08988l-0.2706,1.08768l-0.28383,1.0843l-0.29413,1.0815l-0.30442,1.07797l-0.31619,1.0765l-0.32648,1.07209l-0.33824,1.06915l-0.34707,1.06474l-0.3603,1.06179l-0.36913,1.05885l-0.38089,1.05591l-0.38972,1.05003l-0.40148,1.04709l-0.41178,1.04415l-0.42207,1.03826l-0.43237,1.03679l-0.25001,0.58531l-0.45001,1.03385l-0.45737,1.02503l-0.46913,1.01915l-0.47795,1.01473l-0.48678,1.01032l-0.49854,1.00444l-0.50737,1.00003l-0.51766,0.99415l-0.52796,0.98973l-0.53678,0.98385l-0.54707,0.97797l-0.55737,0.97356l-0.56766,0.9662l-0.57649,0.96179l-0.58678,0.95444l-0.59561,0.95003l-0.6059,0.94267l-0.46913,0.71326h6.54725l0.44413,-0.72061l0.60443,-1.01032l0.59561,-1.01473l0.58384,-1.02062l0.57502,-1.02797l0.56325,-1.03238l0.55443,-1.03826l0.54266,-1.04415l0.53237,-1.04856l0.52207,-1.05444l0.51031,-1.06032l0.50148,-1.06327l0.48972,-1.06915l0.4809,-1.07356l0.46619,-1.07209l0.26618,-0.62502l0.45295,-1.0868l0.44119,-1.08827l0.43237,-1.09415l0.4206,-1.09856l0.40884,-1.10297l0.39854,-1.10738l0.38825,-1.11033l0.37648,-1.11474l0.36472,-1.11915l0.35442,-1.12209l0.34266,-1.12503l0.33236,-1.12944l0.31913,-1.13386l0.30883,-1.13533l0.29707,-1.139l0.2853,-1.14194l0.27207,-1.14474l0.26324,-1.14753l0.24854,-1.15018l0.23824,-1.15312l0.22648,-1.15518l0.21618,-1.15724l0.20148,-1.1593l0.19118,-1.1615l0.17942,-1.16268l0.16765,-1.16489l0.15589,-1.16695l0.14412,-1.16768l0.13089,-1.16915l0.12059,-1.17047l0.10883,-1.17106l0.09706,-1.17253l0.0853,-1.17253l0.07353,-1.17386l0.06177,-1.17474l0.05,-1.17459zM359.35329,285.41247c12.69154,-17.3049 20.18734,-38.65801 20.18734,-61.7622c0,-57.73635 -46.80575,-104.54086 -104.54136,-104.54086c-57.73635,0 -104.54082,46.80451 -104.54082,104.54086c0,23.10419 7.49496,44.4573 20.18635,61.7622h19.37599c-0.05132,-0.09118 -0.10221,-0.18236 -0.15265,-0.27501c-3.50834,-6.36195 -5.71193,-12.35182 -6.61078,-17.96081c-0.50325,-3.01479 -0.75385,-6.16635 -0.75385,-9.47233c0,-3.30892 0.37795,-7.56698 1.12577,-12.78566c0.7537,-5.20662 2.70464,-10.56839 5.86296,-16.07928c3.16215,-5.51104 7.3405,-10.57045 12.55712,-15.19043c-1.40798,3.20994 -1.933,6.96667 -1.58107,11.27444c0.3481,4.31762 1.1018,8.39862 2.25727,12.25491c1.1515,3.86423 3.18215,6.9349 6.08782,9.24791c2.90758,2.30904 6.26459,2.95332 10.07117,1.95506c1.80579,-0.39986 3.35715,-1.00635 4.65778,-1.8099c1.30268,-0.80341 2.35477,-1.81976 3.16215,-3.08053c0.79561,-1.25504 1.47769,-2.44831 2.02668,-3.60378c0.55281,-1.15342 0.8512,-2.73052 0.90488,-4.73734c0.04765,-2.00462 0.09736,-3.67922 0.14721,-5.03956c0.04971,-1.35033 -0.12736,-3.32921 -0.5231,-5.93252c-0.40178,-2.61331 -0.70399,-4.59013 -0.90091,-5.94061c-0.20692,-1.35033 -0.60266,-3.50422 -1.20518,-6.46945c-0.60075,-2.95538 -1.00238,-5.03176 -1.20327,-6.23488c-1.50357,-8.31318 -1.10577,-16.65224 1.20327,-25.02115c2.30492,-8.36877 5.31,-15.28985 9.02114,-20.75103c3.70511,-5.46119 8.14214,-10.74751 13.30509,-15.86663c5.15882,-5.10926 8.79437,-8.43848 10.89855,-9.99176c2.10418,-1.55519 3.80658,-2.73052 5.10926,-3.53201c-5.10926,14.93587 -7.54154,27.83712 -7.293,38.70993c0.2506,10.87472 2.45816,19.67306 6.61681,26.38722c4.16056,6.71416 10.19853,11.72592 18.11581,15.03528c1.80638,0.70414 3.45201,1.15356 4.96235,1.35048c7.11785,0.49913 8.71495,-7.21329 4.81043,-23.14757c-2.10447,-8.52598 -4.26189,-14.98557 -6.46342,-19.39879c16.43282,10.92252 28.792,24.87983 37.05694,41.87208c8.26788,16.9924 10.49589,34.10185 6.68843,51.33749c-1.50298,6.72372 -3.85452,12.82978 -7.06638,18.3417c-0.93532,1.61034 -1.87652,3.1295 -2.82508,4.55454zM288.92304,285.41247c1.43931,-3.48686 2.40036,-6.80902 2.88332,-9.9694c1.7024,-10.01352 0.39589,-19.2432 -3.91188,-27.66446c-4.31365,-8.41465 -10.42324,-16.63621 -18.34067,-24.65306c2.00065,3.90599 2.6511,11.80548 1.953,23.67656c-0.70002,11.88313 -2.65302,21.1231 -5.86296,27.738c-1.50357,3.0045 -3.25377,6.03841 -5.26236,9.09291c-0.38781,0.59266 -0.79061,1.18533 -1.20827,1.77946z" data-paper-data="{&quot;isPathIcon&quot;:true}"></path></g><g><path d="M86.69228,326.76364l37.23562,37.23636h302.14346l37.23636,-37.23636l-37.23636,-37.23488h-302.14346zM259.64397,319.31343c-0.34722,-0.33089 -0.84311,-0.49707 -1.48784,-0.49707c-0.66129,0 -1.1593,0.16128 -1.49401,0.48384c-0.33486,0.32207 -1.1593,1.27945 -2.4736,2.87067c-1.3143,1.59122 -2.14286,2.59713 -2.48595,3.0192c-0.34295,0.4206 -0.51443,0.95444 -0.51443,1.59857c0.01647,0.69414 0.19206,1.23827 0.52693,1.63093c0.33472,0.39266 1.14886,1.36769 2.44242,2.92655c1.29371,1.5574 2.10991,2.5089 2.44875,2.85155c0.33893,0.34315 0.84728,0.51472 1.52504,0.51472h0.04956c0.62002,0 1.10768,-0.16177 1.46313,-0.48384c0.32236,-0.30589 0.48354,-0.75296 0.48354,-1.33974v-0.1603c0.00824,-0.05 0.01235,-0.09559 0.01235,-0.13677c0,-0.60296 -0.34722,-1.22798 -1.0415,-1.87211l-3.6451,-3.956l3.63275,-3.97953c0.70252,-0.61178 1.05385,-1.26915 1.05385,-1.97064v-0.08677c0,-0.62796 -0.1653,-1.10003 -0.4959,-1.41328zM134.9138,320.77524c-0.00824,-1.26474 -0.67781,-1.91329 -2.00859,-1.94564c-1.3143,0.025 -1.9755,0.69414 -1.98373,2.00888v11.95181c0.00824,1.28092 0.66943,1.92211 1.98373,1.92211h9.91889c1.30599,-0.01765 1.95898,-0.67355 1.95898,-1.97212c0,-1.33043 -0.66539,-2.00006 -1.99617,-2.00888h-7.88546zM147.3248,334.46975c0.3141,0.16912 0.64059,0.25442 0.97948,0.25442h11.89028c0.33064,0 0.65506,-0.0853 0.97329,-0.25442c0.31823,-0.16912 0.56621,-0.41325 0.74392,-0.7309c0.17772,-0.31864 0.26658,-0.65149 0.26658,-0.99856c0,-0.34707 -0.99396,-2.50644 -2.98188,-6.47813c-1.98791,-3.97217 -3.06866,-6.11488 -3.24224,-6.42812c-0.17358,-0.31471 -0.41743,-0.56031 -0.73152,-0.73826c-0.3141,-0.17795 -0.64472,-0.26618 -0.99188,-0.26618c-0.33891,0 -0.66746,0.08824 -0.98569,0.26618c-0.31823,0.17795 -0.56415,0.42354 -0.73773,0.73826c-0.17358,0.31324 -1.24812,2.45595 -3.22364,6.42812c-1.97552,3.97168 -2.96328,6.13106 -2.96328,6.47813c0,0.34707 0.08886,0.67992 0.26657,0.99856c0.17773,0.31766 0.42363,0.56178 0.73773,0.7309zM180.63996,334.46975c0.31398,0.16912 0.64061,0.25442 0.97944,0.25442h11.89034c0.3306,0 0.65502,-0.0853 0.97326,-0.25442c0.31824,-0.16912 0.56619,-0.41325 0.74384,-0.7309c0.17775,-0.31864 0.26663,-0.65149 0.26663,-0.99856c0,-0.34707 -0.99395,-2.50644 -2.98185,-6.47813c-1.988,-3.97217 -3.06876,-6.11488 -3.2423,-6.42812c-0.17353,-0.31471 -0.41736,-0.56031 -0.73149,-0.73826c-0.31413,-0.17795 -0.64472,-0.26618 -0.99194,-0.26618c-0.33883,0 -0.66737,0.08824 -0.98562,0.26618c-0.31824,0.17795 -0.56413,0.42354 -0.73782,0.73826c-0.17353,0.31324 -1.24812,2.45595 -3.22362,6.42812c-1.97545,3.97168 -2.96317,6.13106 -2.96317,6.47813c0,0.34707 0.08883,0.67992 0.26648,0.99856c0.1778,0.31766 0.42369,0.56178 0.73782,0.7309zM213.95502,334.46975c0.31413,0.16912 0.64061,0.25442 0.97944,0.25442h11.89034c0.3306,0 0.65502,-0.0853 0.97326,-0.25442c0.31824,-0.16912 0.56619,-0.41325 0.74399,-0.7309c0.17765,-0.31864 0.26648,-0.65149 0.26648,-0.99856c0,-0.34707 -0.99395,-2.50644 -2.98185,-6.47813c-1.98785,-3.97217 -3.06862,-6.11488 -3.2423,-6.42812c-0.17353,-0.31471 -0.41736,-0.56031 -0.73149,-0.73826c-0.31413,-0.17795 -0.64472,-0.26618 -0.99179,-0.26618c-0.33898,0 -0.66752,0.08824 -0.98576,0.26618c-0.31824,0.17795 -0.56413,0.42354 -0.73767,0.73826c-0.17368,0.31324 -1.24812,2.45595 -3.22362,6.42812c-1.97555,3.97168 -2.96332,6.13106 -2.96332,6.47813c0,0.34707 0.08888,0.67992 0.26663,0.99856c0.17765,0.31766 0.42354,0.56178 0.73767,0.7309zM250.23341,320.82524c0,-1.3221 -0.66546,-1.98829 -1.99623,-1.99565c-1.32254,0.01618 -1.98373,0.68531 -1.98373,2.00888v11.90181c0,1.30592 0.65708,1.96329 1.97138,1.97212c1.32254,-0.01765 1.98785,-0.67796 1.99609,-1.98388zM303.93185,318.8546l-10.04293,-0.025c-1.3143,0.025 -1.9755,0.69414 -1.98373,2.00888v11.95181c0.00824,1.28141 0.66948,1.92211 1.98373,1.92211h9.91896c1.30563,-0.01765 1.95859,-0.67355 1.95859,-1.97212c0,-1.33043 -0.66526,-2.00006 -1.99579,-2.00888h-7.88552v-7.89728h7.89787c1.3393,-0.025 2.00844,-0.71031 2.00844,-2.05888c-0.00882,-1.26474 -0.62796,-1.90447 -1.85961,-1.92064zM335.22613,318.8546l-10.04293,-0.025c-1.31474,0.025 -1.97506,0.69414 -1.98388,2.00888v11.95181c0.00882,1.28092 0.66914,1.92211 1.98388,1.92211h9.9194c1.30592,-0.01765 1.95888,-0.67355 1.95888,-1.97212c0,-1.33043 -0.66571,-2.00006 -1.99712,-2.00888h-7.88552v-7.89728h7.89875c1.33827,-0.025 2.00741,-0.71031 2.00741,-2.05888c-0.00735,-1.26474 -0.62796,-1.90447 -1.85888,-1.92064zM355.51053,334.46975c0.31324,0.16912 0.63972,0.25442 0.97944,0.25442h11.89004c0.33089,0 0.65443,-0.0853 0.97356,-0.25442c0.31766,-0.16912 0.56619,-0.41325 0.74414,-0.7309c0.17746,-0.31864 0.26618,-0.65149 0.26618,-0.99856c0,-0.34707 -0.99415,-2.50644 -2.98244,-6.47813c-1.98829,-3.97217 -3.06773,-6.11488 -3.24127,-6.42812c-0.17353,-0.31471 -0.41766,-0.56031 -0.73237,-0.73826c-0.31324,-0.17795 -0.64414,-0.26618 -0.9912,-0.26618c-0.33972,0 -0.66767,0.08824 -0.98679,0.26618c-0.31766,0.17795 -0.56325,0.42354 -0.73679,0.73826c-0.17353,0.31324 -1.24856,2.45595 -3.22362,6.42812c-1.97653,3.97217 -2.96332,6.13106 -2.96332,6.47813c0,0.34707 0.08873,0.67992 0.26618,0.99856c0.17795,0.31766 0.42354,0.56178 0.73826,0.7309zM373.98459,318.8296l10.04293,0.025c1.23092,0.01618 1.85152,0.6559 1.85888,1.92064c0,1.34857 -0.66914,2.03388 -2.00888,2.05888h-2.96332l0.01324,9.90616c-0.01618,1.29857 -0.68237,1.95447 -1.99565,1.97212c-1.32259,0 -1.98388,-0.6407 -1.98388,-1.92211l0.01177,-9.95617h-2.97508c-1.32357,0 -1.98388,-0.6662 -1.98388,-1.99565c0.00735,-1.31474 0.66914,-1.98388 1.98388,-2.00888zM282.20947,318.8546l3.99232,-0.01324c1.28945,0.00882 1.94241,0.67796 1.95903,2.00888c-0.01662,1.30592 -0.66958,1.95006 -1.95903,1.93388l-3.96761,0.025c-0.67776,0 -1.33278,0.16961 -1.96506,0.50884c-0.63237,0.33824 -1.12621,0.82649 -1.48166,1.46328c-0.3555,0.63629 -0.53325,1.30151 -0.53325,1.99565c0,0.69414 0.17574,1.35592 0.52693,1.98388c0.35133,0.62796 0.84105,1.11621 1.46931,1.46328c0.62825,0.34707 1.28945,0.5206 1.98373,0.5206c0.68605,0 1.38048,-0.16324 2.083,-0.48972c0.70267,-0.32648 1.21503,-0.83238 1.5374,-1.51916h-1.66137c-1.33901,0.00882 -2.00859,-0.64119 -2.00859,-1.94711c0,-1.3221 0.66134,-1.99123 1.98373,-2.00741l3.97997,0.01177c1.33916,0.03235 2.0127,0.70296 2.02109,2.00888c0,1.3721 -0.34927,2.68831 -1.04768,3.94864c-0.69855,1.26033 -1.68005,2.23977 -2.94479,2.93832c-1.26459,0.69855 -2.58713,1.04856 -3.96747,1.04856c-1.3721,0 -2.68846,-0.35001 -3.94894,-1.04856c-1.26062,-0.69855 -2.24006,-1.67799 -2.93847,-2.93832c-0.69855,-1.26033 -1.04768,-2.57654 -1.04768,-3.94864c0,-1.38092 0.35325,-2.70743 1.06003,-3.981c0.70664,-1.2721 1.69446,-2.25153 2.96332,-2.93832c1.26871,-0.68531 2.57257,-1.02797 3.91173,-1.02797zM165.95994,318.8546h6.96804c1.28945,0 2.43424,0.50001 3.43436,1.50004c1.00018,1.00003 1.49607,2.14418 1.48784,3.43392c0,1.3721 -0.25001,2.52948 -0.75002,3.47216c-0.50016,0.9412 -1.25018,1.42945 -2.25036,1.46328l2.44242,2.47948c0.39678,0.38825 0.59516,0.90003 0.59516,1.53681c-0.02471,1.31474 -0.68605,1.97212 -1.98373,1.97212h-0.04956c-0.66134,0 -1.31018,-0.32354 -1.94667,-0.96767l-3.96752,-4.9222c-0.66952,-0.71031 -1.00843,-1.39269 -1.01669,-2.04565c0,-1.33974 0.66953,-2.00447 2.00859,-1.99565l1.40103,-0.01324c1.04974,0.01618 1.56637,-0.30148 1.5499,-0.95444c0,-0.65296 -0.51663,-0.97944 -1.5499,-0.97944h-4.3767v9.8944c0.00826,1.3221 -0.65712,1.98388 -1.99617,1.98388c-1.32252,0 -1.98378,-0.65296 -1.98378,-1.95888v-11.94005c0.00826,-1.29857 0.66952,-1.95153 1.98378,-1.95888zM199.27505,318.8546h6.96799c1.27298,0 2.4136,0.48678 3.42201,1.46181c1.00018,0.9765 1.50034,2.12065 1.50034,3.43539v0.03677c0,1.3721 -0.49398,2.54419 -1.48166,3.51481c-0.98782,0.97209 -2.15947,1.45739 -3.5151,1.45739l-1.95888,0.025c-1.30607,0 -1.96314,-0.67061 -1.97138,-2.00888c0,-1.33974 0.66943,-2.00447 2.00859,-1.99565l1.40092,-0.01324c1.04974,0.01618 1.56637,-0.30148 1.5499,-0.95444c0,-0.65296 -0.51663,-0.97944 -1.5499,-0.97944h-4.3766v9.8944c0.00824,1.3221 -0.65722,1.98388 -1.99623,1.98388c-1.32254,0 -1.98373,-0.65296 -1.98373,-1.95888v-11.94005c0.00824,-1.29857 0.66943,-1.95153 1.98373,-1.95888zM238.52911,318.8546l3.97997,0.01177c1.31416,0.01618 1.9755,0.66914 1.98373,1.95888c-0.00824,1.33974 -0.6737,2.00447 -1.99623,1.99565l-3.95511,0.01324c-2.63669,-0.025 -3.95511,1.29415 -3.95511,3.95452c0,2.62851 1.32249,3.95109 3.96747,3.96776h3.94276c1.32254,0.025 1.98388,0.67796 1.98388,1.95888c0,1.32259 -0.65301,1.98829 -1.95903,1.99712h-3.96761c-5.29,0 -7.9392,-2.64566 -7.94743,-7.93552c0,-5.2825 2.63258,-7.92228 7.89787,-7.92228zM340.8307,318.8546h6.96785c1.28925,0 2.43389,0.50001 3.43392,1.50004c1.00003,1.00003 1.49563,2.14418 1.48828,3.43392c0,1.3721 -0.25001,2.52948 -0.75002,3.47216c-0.50001,0.9412 -1.25004,1.42945 -2.25006,1.46328l2.44125,2.47948c0.39707,0.38825 0.59561,0.90003 0.59561,1.53681c-0.025,1.31474 -0.68531,1.97212 -1.98388,1.97212h-0.05c-0.66031,0 -1.30886,-0.32354 -1.94564,-0.96767l-3.96776,-4.9222c-0.66914,-0.71031 -1.00885,-1.39269 -1.01621,-2.04565c0,-1.33974 0.66914,-2.00447 2.00741,-1.99565l1.40151,-0.01324c1.05003,0.01618 1.56622,-0.30148 1.55004,-0.95444c0,-0.65296 -0.51619,-0.97944 -1.55004,-0.97944h-4.3766v9.8944c0.00882,1.3221 -0.65737,1.98388 -1.99565,1.98388c-1.32357,0 -1.98388,-0.65296 -1.98388,-1.95888v-11.94005c0.00735,-1.29857 0.66914,-1.95153 1.98388,-1.95888zM399.32648,319.88257c-1.26474,-0.68531 -2.56625,-1.02797 -3.90452,-1.02797c-1.33974,0 -2.64419,0.34266 -3.91188,1.02797c-1.26915,0.68678 -2.25742,1.66622 -2.96332,2.93832c-0.70688,1.27357 -1.06032,2.60056 -1.06032,3.981c0,1.3721 0.34854,2.68831 1.04709,3.94864c0.69855,1.26033 1.67799,2.23977 2.93832,2.93832c1.26033,0.69855 2.57801,1.04856 3.95011,1.04856c1.37945,0 2.70155,-0.35001 3.96629,-1.04856c1.26474,-0.69855 2.24712,-1.67799 2.94567,-2.93832c0.69855,-1.26033 1.04709,-2.57654 1.04709,-3.94864c0,-1.38043 -0.35932,-2.70743 -1.07797,-3.981c-0.71914,-1.2721 -1.71181,-2.25153 -2.97656,-2.93832zM407.15024,318.8546h6.96785c1.28974,0 2.43389,0.50001 3.43539,1.50004c1.00003,1.00003 1.49563,2.14418 1.48681,3.43392c0,1.3721 -0.25001,2.52948 -0.75002,3.47216c-0.50001,0.9412 -1.25004,1.42945 -2.25006,1.46328l2.44272,2.47948c0.39707,0.38825 0.59561,0.90003 0.59561,1.53681c-0.025,1.31474 -0.68678,1.97212 -1.98388,1.97212h-0.05c-0.66178,0 -1.31033,-0.32354 -1.94711,-0.96767l-3.96776,-4.9222c-0.66914,-0.71031 -1.00738,-1.39269 -1.01621,-2.04565c0,-1.33974 0.66914,-2.00447 2.00888,-1.99565l1.40151,-0.01324c1.04856,0.01618 1.56622,-0.30148 1.54857,-0.95444c0,-0.65296 -0.51619,-0.97944 -1.54857,-0.97944h-4.37807v9.8944c0.00882,1.3221 -0.6559,1.98388 -1.99565,1.98388c-1.3221,0 -1.98388,-0.65296 -1.98388,-1.95888v-11.94005c0.00882,-1.29857 0.66914,-1.95153 1.98388,-1.95888zM309.82099,318.86636c0.71914,0.05735 1.29415,0.33089 1.72358,0.81767l5.9384,7.57669v-6.65901c0.025,-1.13239 0.58678,-1.71034 1.68681,-1.73534c1.48828,0.025 2.23977,0.62061 2.25595,1.78534l0.01324,12.33712c-0.00882,1.13239 -0.76473,1.70593 -2.26918,1.72358c-0.67796,-0.00882 -1.23092,-0.28089 -1.66181,-0.81914l-5.96341,-7.55022v6.64578c-0.00882,1.13974 -0.58237,1.71475 -1.72358,1.72358c-1.49563,0 -2.24859,-0.58384 -2.25595,-1.74858v-12.37388c0,-1.14121 0.75149,-1.71475 2.25595,-1.72358zM393.48073,323.31796c0.63237,-0.33972 1.28827,-0.50884 1.96476,-0.50884c0.66178,0 1.31033,0.16912 1.94711,0.50884c0.63678,0.33824 1.13239,0.82649 1.48828,1.46328c0.35442,0.63531 0.53237,1.30151 0.53237,1.99565c0,0.69414 -0.17353,1.35592 -0.5206,1.98388c-0.34707,0.62796 -0.83679,1.11621 -1.46916,1.46328c-0.63237,0.34707 -1.29121,0.5206 -1.978,0.5206c-0.69414,0 -1.35445,-0.17353 -1.98388,-0.5206c-0.62796,-0.34707 -1.11768,-0.83532 -1.46916,-1.46328c-0.35001,-0.62796 -0.52649,-1.28974 -0.52649,-1.98388c0,-0.69414 0.17795,-1.36033 0.53384,-1.99565c0.35442,-0.63678 0.84855,-1.12503 1.48092,-1.46328zM298.79877,324.818c-1.29768,0.01618 -1.95064,0.68531 -1.95903,2.00888c0,1.31327 0.65722,1.96623 1.97153,1.95888h3.97982c1.3143,0 1.98417,-0.66178 2.00917,-1.98388c-0.01765,-1.31474 -0.68664,-1.97653 -2.00917,-1.98388zM330.09363,324.818c-1.29857,0.01618 -1.95153,0.68531 -1.96035,2.00888c0,1.31327 0.65737,1.96623 1.97212,1.95888h3.97953c1.31474,0 1.98388,-0.66178 2.00888,-1.98388c-0.01618,-1.31474 -0.68531,-1.97653 -2.00888,-1.98388zM154.23084,325.14007l2.72769,5.59134h-5.45539zM187.54589,325.14007l2.72772,5.59134h-5.4553zM220.8611,325.14007l2.72758,5.59134h-5.4553zM362.41661,325.14007l2.72655,5.59134h-5.45457z"></path></g></g></g></svg>